<svg width="55" height="41" viewBox="0 0 55 41" fill="none" xmlns="http://www.w3.org/2000/svg"><path d="M39.142.607h-26.88s0 19.48 10.522 23.988c1.24.531 1.994 1.55 1.994 2.644h5.403c0-1.093.753-2.113 1.994-2.644a11.5 11.5 0 0 0 3.063-1.95c5.33-4.682 6.852-13.928 7.285-18.823.174-1.954.174-3.215.174-3.215z" fill="#FECE00"/><path d="M1.717 7.809C1.83.382 12.435 3.822 12.435 3.822c.066.75.158 1.6.285 2.52-2.79-.772-8.749-1.912-7.912 2.78.849 4.76 3.545 8.05 7.134 9.826 1.998.988 4.206 1.128 5.482 1.108a14.7 14.7 0 0 0 2.297 2.59s-4.51.648-9.003-1.434c-4.183-1.94-9.112-6.102-9-13.402" fill="#EEBF00"/><path d="M30.181 30.026h-5.403v3.69h5.403z" fill="#FECE00"/><path d="M30.182 30.026H24.69v1.447h5.493z" fill="#DDB201"/><path d="M38.66 36.377H16.3v3.91h22.36z" fill="#3E3D43"/><path d="M38.66 38.78H16.3v1.506h22.36z" fill="#444"/><path d="M34.449 33.716H20.51v2.66h13.938z" fill="#77767E"/><path d="M34.449 35.046H20.51v1.33h13.938z" fill="#3E3D43"/><path d="M30.27 30.026h-5.582c-.999 0-1.81-.624-1.81-1.393 0-.77.811-1.394 1.81-1.394h5.583c.999 0 1.809.624 1.809 1.393 0 .77-.81 1.394-1.81 1.394" fill="#CBA400"/><path d="M39.142.607s0 1.261-.174 3.215c-.433 4.895-1.954 14.141-7.285 18.824a11.5 11.5 0 0 1-3.063 1.95c-1.24.53-1.994 1.55-1.994 2.643h3.555c0-1.093.753-2.112 1.993-2.644a11.5 11.5 0 0 0 3.063-1.95c5.331-4.682 6.852-13.928 7.286-18.823.174-1.954.174-3.215.174-3.215z" fill="#DDB201"/><path d="M25.376 24.595C14.854 20.087 14.854.607 14.854.607h-2.592s0 19.48 10.522 23.988c1.24.532 1.994 1.551 1.994 2.644h1.848c0-.453.132-.894.372-1.292-.339-.562-.896-1.04-1.622-1.352" fill="#FEDA44"/><path d="M53.24 7.809C53.129.382 42.524 3.822 42.524 3.822c-.066.75-.158 1.6-.285 2.52 2.79-.773 8.749-1.912 7.912 2.779-.849 4.76-3.545 8.05-7.133 9.826-1.999.988-4.207 1.128-5.483 1.108a14.7 14.7 0 0 1-2.297 2.59s4.51.648 9.003-1.434c4.183-1.94 9.112-6.102 9-13.402" fill="#EEBF00"/><path d="M10.61 5.86c.783.139 1.518.319 2.11.483a52 52 0 0 1-.285-2.52s-1.043-.338-2.478-.574c.258.865.503 1.733.653 2.612m6.814 14.194c-.644.01-1.526-.02-2.498-.18q.141.301.292.604c.462.761 1.028 1.499 1.603 2.225 1.735.109 2.9-.058 2.9-.058a14.7 14.7 0 0 1-2.297-2.59M44.348 5.86c-.783.139-1.518.319-2.11.483.127-.92.219-1.772.285-2.52 0 0 1.043-.338 2.478-.574-.258.865-.503 1.733-.653 2.612m-6.813 14.194c.644.01 1.525-.02 2.497-.18q-.141.301-.291.604c-.462.761-1.028 1.499-1.604 2.225-1.734.109-2.9-.058-2.9-.058a14.7 14.7 0 0 0 2.298-2.59" fill="#CBA400"/><path d="M30.97 34.323h-6.98V29.42h6.98zm-5.403-1.215h3.825v-2.474h-3.825z" fill="#000"/><path d="M30.27 30.633h-5.582c-1.432 0-2.598-.897-2.598-2 0-1.104 1.166-2.001 2.598-2.001h5.583c1.432 0 2.598.897 2.598 2 0 1.104-1.166 2.001-2.598 2.001m-5.582-2.787c-.563 0-1.02.353-1.02.787 0 .433.457.786 1.02.786h5.583c.563 0 1.02-.353 1.02-.786s-.457-.787-1.02-.787zm10.548 9.137H19.722v-3.875h15.515zm-13.938-1.215h12.36v-1.445H21.3z" fill="#000"/><path d="M39.448 40.894H15.51v-5.126h23.937zm-22.36-1.215H37.87v-2.696H17.088zM30.97 27.847h-6.98v-.608c0-.883-.61-1.693-1.59-2.113-2.548-1.092-4.706-3.086-6.414-5.926-1.337-2.222-2.408-4.974-3.184-8.178C11.49 5.596 11.473.657 11.473.607V0h32.013v.607c0 .053-.003 1.305-.176 3.257-.453 5.108-2.027 14.392-7.48 19.182-.998.878-2.1 1.578-3.272 2.08-.98.42-1.588 1.23-1.588 2.113zm-5.47-1.215h3.956c.234-1.08 1.084-2.032 2.334-2.567a10.7 10.7 0 0 0 2.854-1.82c5.147-4.521 6.652-13.509 7.092-18.464.099-1.12.14-2.016.158-2.566h-28.83c.113 3.296 1.125 19.003 10.103 22.85 1.25.535 2.1 1.486 2.333 2.567" fill="#000"/><path d="M36.971 23.348c-1.13 0-1.848-.1-1.878-.105l-1.362-.195.914-.802a14 14 0 0 0 2.196-2.48l.23-.326.48.008.204.001c1.27 0 3.142-.176 4.836-1.013 3.608-1.785 6.015-5.122 6.778-9.398.183-1.026.021-1.772-.48-2.215-.438-.386-1.187-.582-2.227-.582-1.429 0-3.05.366-4.157.674l-1.184.328.133-.964c.114-.827.209-1.668.283-2.498l.033-.373.447-.145c.107-.035 2.63-.844 5.318-.844 4.135 0 6.442 1.912 6.494 5.383.052 3.415-.959 6.455-3.005 9.035-2.01 2.533-4.577 4.06-6.377 4.894-2.884 1.337-5.766 1.617-7.676 1.617m-.196-1.215h.196c1.71 0 4.289-.25 6.862-1.442 2.632-1.22 8.74-4.916 8.62-12.875-.044-2.814-1.652-4.182-4.918-4.182-1.747 0-3.472.405-4.26.62q-.06.61-.133 1.222c1.072-.242 2.335-.45 3.52-.45 1.516 0 2.665.336 3.415.998.815.72 1.102 1.79.855 3.18-.425 2.38-1.312 4.484-2.638 6.253-1.265 1.689-2.898 3.035-4.851 4-1.908.944-3.972 1.182-5.444 1.205a16 16 0 0 1-1.224 1.47m-18.788 1.216c-1.91 0-4.792-.28-7.675-1.617-1.801-.834-4.369-2.36-6.378-4.894-2.046-2.58-3.057-5.62-3.005-9.035C.98 4.33 3.288 2.419 7.423 2.419c2.688 0 5.212.809 5.318.843l.447.146.033.373c.074.832.17 1.673.283 2.498l.133.964-1.184-.329c-1.108-.307-2.728-.673-4.157-.673-1.04 0-1.79.196-2.226.582-.502.443-.664 1.188-.481 2.215.762 4.275 3.17 7.613 6.778 9.398 1.694.837 3.565 1.013 4.836 1.013l.204-.001.48-.008.23.325a14 14 0 0 0 2.196 2.48l.196.172v.228c0 .159-.078.535-.794.616q-.175.02-.38.036a17 17 0 0 1-1.348.051M7.423 3.634c-3.266 0-4.874 1.368-4.917 4.182-.122 7.958 5.987 11.655 8.619 12.874 2.573 1.193 5.152 1.443 6.862 1.443h.196a16 16 0 0 1-1.224-1.471c-1.472-.023-3.536-.26-5.444-1.204-1.953-.966-3.585-2.313-4.851-4.001-1.326-1.77-2.213-3.873-2.638-6.254-.248-1.39.04-2.459.855-3.179.75-.662 1.899-.998 3.415-.998 1.185 0 2.448.208 3.52.45a54 54 0 0 1-.132-1.223c-.789-.214-2.514-.62-4.26-.62" fill="#000"/><path d="M42.63 2.043H12.262v1.214H42.63z" fill="#000"/><path d="M20.997 21.755a12 12 0 0 1-1.436-1.42l1.317-.668c.401.47.83.894 1.274 1.26zm-2.041-2.182c-1.235-1.674-2.245-3.818-3.001-6.371l1.537-.27c.723 2.438 1.676 4.47 2.835 6.04z" fill="#fff"/><path d="m45.612 27.664-.003-3.266-1.577.001.003 3.266z" fill="#000"/><path d="m46.945 26.638-.001-1.215-4.241.002.001 1.215zm-35.447 4.204H9.92v2.936h1.577z" fill="#000"/><path d="M12.615 31.703H8.804v1.215h3.811zM7.48 23.016H5.994v1.215H7.48zm9.563 3.594h-1.488v1.214h1.488zm23.981 3.654h-1.488v1.215h1.488z" fill="#000"/></svg>